<?xml version="1.0" standalone="no"?>
<!DOCTYPE svg PUBLIC "-//W3C//DTD SVG 20010904//EN"
 "http://www.w3.org/TR/2001/REC-SVG-20010904/DTD/svg10.dtd">
<svg version="1.0" xmlns="http://www.w3.org/2000/svg"
 width="1280.000000pt" height="1280.000000pt" viewBox="0 0 1280.000000 1280.000000"
 preserveAspectRatio="xMidYMid meet">
<metadata>
Created by potrace 1.15, written by Peter Selinger 2001-2017
</metadata>
<g transform="translate(0.000000,1280.000000) scale(0.100000,-0.100000)"
fill="#000000" stroke="none">
<path d="M6042 12790 c-62 -4 -114 -9 -117 -12 -8 -8 56 -78 85 -93 59 -31
191 -7 176 31 -3 9 -6 31 -6 50 0 21 -5 33 -12 32 -7 0 -64 -4 -126 -8z"/>
<path d="M6310 12792 c0 -6 -27 -30 -59 -53 -54 -38 -59 -44 -49 -63 6 -12 16
-24 22 -28 7 -4 5 -9 -4 -12 -8 -2 -30 -9 -48 -15 -29 -9 -51 -5 -153 26 -142
42 -153 39 -121 -36 19 -46 19 -51 4 -55 -30 -8 -115 -24 -244 -47 -70 -13
-126 -25 -123 -27 2 -2 57 3 122 12 249 33 402 41 753 40 557 0 946 -48 1480
-180 697 -173 1376 -477 1967 -880 67 -45 180 -114 250 -152 308 -166 293
-154 237 -188 -17 -10 -15 -14 21 -45 22 -19 76 -65 120 -103 44 -39 163 -152
264 -253 176 -176 200 -194 201 -148 0 6 5 26 10 46 10 35 12 36 90 54 44 10
80 22 80 26 0 4 -80 88 -177 186 -248 249 -479 450 -743 645 -150 111 -296
208 -303 202 -3 -3 -38 11 -78 31 -54 28 -69 39 -58 46 17 11 31 2 -181 124
-806 465 -1702 746 -2650 830 -233 21 -630 31 -630 17z"/>
<path d="M5730 12764 c-176 -19 -379 -50 -560 -85 -158 -31 -474 -106 -498
-119 -10 -5 -9 -11 5 -29 19 -23 19 -23 -41 -81 l-59 -57 -73 34 c-41 18 -86
36 -101 39 -29 6 -200 -51 -403 -134 l-95 -38 -3 -75 c-3 -72 -4 -76 -33 -93
-17 -10 -56 -38 -85 -63 l-54 -44 -19 43 c-10 24 -24 60 -32 81 -16 44 -15 44
-140 -19 -1402 -701 -2499 -1894 -3081 -3349 -36 -90 -148 -401 -148 -411 0
-3 28 -2 63 1 34 2 97 7 139 11 l77 6 46 126 c336 913 884 1741 1578 2380 900
829 1940 1346 3143 1562 l121 22 40 62 c39 61 42 63 88 69 69 7 267 107 283
142 7 14 12 28 12 30 0 7 -24 5 -170 -11z m-1675 -500 c0 -12 -22 -34 -64 -61
-36 -24 -67 -40 -70 -38 -8 8 112 126 124 122 5 -2 10 -12 10 -23z m-145 -155
c0 -11 -4 -17 -10 -14 -5 3 -10 13 -10 21 0 8 5 14 10 14 6 0 10 -9 10 -21z
m-3278 -3205 c32 -9 58 -21 58 -26 0 -6 -9 -40 -20 -77 l-21 -68 -69 71 -69
71 21 22 c26 27 26 27 100 7z"/>
<path d="M6140 12434 c-131 -6 -320 -23 -508 -46 l-184 -22 6 -30 c4 -16 7
-31 9 -32 2 -2 50 4 107 12 335 47 893 68 1212 45 846 -63 1589 -267 2323
-640 172 -86 227 -110 305 -128 52 -11 96 -20 98 -19 6 7 -306 176 -472 256
-660 320 -1375 517 -2119 585 -164 15 -626 26 -777 19z"/>
<path d="M5260 12329 c-1422 -270 -2720 -1063 -3618 -2211 -666 -850 -1098
-1892 -1231 -2968 -36 -291 -45 -434 -45 -755 0 -775 122 -1431 410 -2193 39
-102 39 -103 68 -97 16 3 31 7 33 8 1 2 -16 50 -38 108 -199 505 -321 1011
-385 1589 -21 199 -30 770 -15 982 78 1062 404 2028 979 2902 227 346 442 607
761 926 226 226 409 386 636 556 719 541 1571 918 2455 1089 74 15 138 30 141
33 3 4 3 19 0 33 l-6 26 -145 -28z"/>
<path d="M6447 11893 c-2 -4 -8 -107 -11 -229 l-7 -221 62 -7 c34 -3 88 -6
119 -6 l58 0 4 35 c2 20 2 38 -1 40 -2 3 -39 5 -80 5 l-77 0 3 68 c1 37 4 122
6 190 3 120 3 122 -19 122 -12 0 -29 3 -37 6 -8 3 -17 2 -20 -3z"/>
<path d="M5939 11877 l-107 -9 4 -37 c6 -49 34 -392 34 -410 0 -13 35 -13 183
5 46 6 47 7 47 41 l0 36 -74 -5 -74 -5 -6 30 c-3 16 -6 42 -6 57 0 28 2 29 66
35 l65 7 -3 37 -3 36 -67 -3 c-67 -4 -68 -3 -68 21 0 13 -3 38 -6 54 l-6 30
77 8 77 7 -6 30 c-3 17 -6 34 -6 39 0 5 -3 8 -7 7 -5 0 -56 -5 -114 -11z"/>
<path d="M6143 11753 c4 -75 7 -179 7 -231 l0 -95 123 8 c67 4 124 8 125 10 2
2 1 17 -3 34 l-7 31 -79 0 -79 0 0 129 c0 70 -3 156 -6 190 l-7 61 -40 0 -40
0 6 -137z"/>
<path d="M6745 11865 c-7 -38 -36 -427 -32 -432 5 -4 165 -23 205 -23 19 0 22
5 22 40 l0 40 -57 0 c-77 0 -85 7 -81 66 l3 49 67 0 66 0 4 38 c3 30 0 37 -14
37 -9 0 -26 -12 -38 -27 l-22 -28 7 33 c6 32 6 32 -30 32 -30 0 -36 3 -31 16
3 9 6 34 6 56 l0 40 50 -4 c49 -3 50 -2 61 30 6 18 9 35 7 37 -2 2 -45 7 -96
12 -89 9 -93 8 -97 -12z"/>
<path d="M5680 11845 c0 -16 38 -75 49 -75 11 0 21 25 21 55 0 19 -6 24 -35
27 -20 2 -35 0 -35 -7z"/>
<path d="M5583 11830 c-17 -10 -37 -29 -43 -41 -16 -28 -7 -116 12 -135 13
-14 18 -9 37 37 20 45 41 159 30 159 -2 0 -18 -9 -36 -20z"/>
<path d="M7088 11829 c-22 -11 -40 -29 -43 -42 -10 -46 -57 -379 -53 -381 1
-2 19 -6 40 -9 l36 -5 11 62 c6 34 11 74 11 89 0 14 4 28 9 32 18 11 38 -25
61 -110 13 -48 28 -88 34 -90 6 -2 28 -6 48 -10 l37 -6 -26 83 c-13 46 -31 93
-38 105 -13 19 -12 23 11 38 66 43 87 156 40 212 -24 28 -83 53 -122 53 -11
-1 -36 -10 -56 -21z m106 -81 c23 -36 16 -87 -18 -135 -35 -51 -46 -54 -46
-14 0 16 -5 31 -11 33 -8 3 -9 25 -4 71 7 65 8 67 36 67 19 0 34 -8 43 -22z"/>
<path d="M5181 11759 c-69 -16 -126 -31 -129 -34 -2 -2 -2 -19 2 -38 l6 -34
54 12 53 12 21 -91 c12 -50 31 -133 43 -185 l21 -93 35 5 c20 4 38 8 40 11 3
3 -13 86 -36 185 -23 99 -41 183 -41 185 0 3 20 8 45 12 53 7 59 14 50 54 -8
36 -5 36 -164 -1z"/>
<path d="M4865 11681 c-70 -32 -93 -74 -75 -139 14 -55 50 -86 131 -117 78
-30 107 -61 90 -93 -14 -25 -63 -45 -100 -40 -27 4 -30 1 -36 -30 -8 -44 6
-54 65 -47 69 10 126 41 144 79 20 43 20 65 0 116 -19 48 -53 74 -130 100 -69
24 -84 36 -84 66 0 29 31 47 82 47 37 0 38 0 38 38 l0 39 -42 0 c-24 0 -61 -9
-83 -19z"/>
<path d="M7714 11611 c-46 -28 -64 -59 -64 -111 0 -108 108 -175 197 -120 64
38 88 111 58 174 -33 70 -125 97 -191 57z"/>
<path d="M4582 11586 c-51 -18 -95 -36 -98 -39 -9 -9 139 -427 151 -427 6 0
53 15 105 34 90 33 95 36 93 62 -3 44 -15 47 -86 21 l-65 -24 -21 55 c-12 30
-20 56 -19 57 2 1 27 10 56 20 59 19 67 29 53 68 l-10 26 -57 -19 c-31 -11
-60 -20 -64 -20 -5 0 -40 87 -40 101 0 3 27 14 61 24 34 10 63 24 65 30 6 14
-13 65 -23 64 -5 0 -50 -15 -101 -33z"/>
<path d="M5644 11585 c8 -5 28 -18 45 -27 42 -23 52 -65 20 -91 -19 -15 -34
-18 -76 -14 -54 6 -62 -2 -63 -54 0 -24 60 -33 125 -19 72 15 115 61 115 123
-1 23 -7 53 -14 66 -12 22 -20 24 -90 25 -54 1 -72 -2 -62 -9z"/>
<path d="M8271 11324 c-96 -233 -96 -214 -1 -256 60 -26 128 -28 164 -5 57 38
81 144 40 178 -13 11 -11 15 17 28 69 33 100 122 60 173 -20 25 -113 71 -166
82 l-30 6 -84 -206z m179 101 c23 -12 30 -22 30 -45 0 -38 -31 -70 -67 -70
-52 0 -56 11 -28 73 13 31 27 57 30 57 3 0 19 -7 35 -15z m-70 -180 c25 -13
30 -22 30 -50 0 -60 -58 -95 -104 -62 -16 12 -16 16 5 70 12 31 26 57 31 57 5
0 22 -7 38 -15z"/>
<path d="M4285 11474 c-70 -26 -125 -55 -125 -67 0 -23 165 -399 177 -404 24
-9 135 40 169 74 29 28 34 41 34 79 0 74 -44 134 -97 134 -22 0 -22 1 -7 33
13 27 14 41 5 73 -20 76 -81 107 -156 78z m65 -84 c29 -29 26 -74 -6 -99 -15
-12 -30 -21 -34 -21 -8 0 -55 109 -49 114 13 10 46 25 57 26 6 0 21 -9 32 -20z
m83 -177 c30 -34 31 -70 3 -97 -38 -39 -54 -33 -82 30 -14 31 -24 58 -22 59
37 28 79 31 101 8z"/>
<path d="M8605 11247 c-40 -84 -85 -176 -99 -205 l-26 -52 79 -39 79 -40 4 40
c3 36 1 42 -24 55 -28 15 -28 15 -12 52 9 20 18 43 21 50 5 13 19 12 54 -2 10
-5 20 3 31 28 l17 34 -29 12 -28 12 24 51 c14 29 30 50 37 48 6 -2 19 -5 27
-8 10 -3 19 7 27 28 7 18 12 34 10 35 -1 1 -28 14 -60 28 l-59 26 -73 -153z"/>
<path d="M9765 11376 l-27 -22 42 -28 c41 -27 41 -27 71 -9 l29 19 -44 31 -43
31 -28 -22z"/>
<path d="M3725 11106 c-17 -7 -44 -28 -59 -47 -25 -29 -28 -39 -24 -88 4 -47
10 -59 41 -88 69 -62 178 -40 213 43 19 46 17 83 -6 121 -36 60 -107 86 -165
59z"/>
<path d="M10196 11054 c-24 -13 -26 -18 -15 -28 8 -7 61 -53 119 -101 58 -49
207 -191 332 -315 125 -125 229 -222 232 -216 2 6 5 0 5 -13 1 -30 17 -18 26
19 5 22 -8 42 -102 143 -59 64 -165 170 -235 236 -126 118 -322 291 -329 291
-2 -1 -17 -8 -33 -16z"/>
<path d="M9274 11034 c-22 -13 -33 -24 -25 -24 8 0 11 -6 7 -16 -5 -12 4 -10
36 9 23 13 44 29 46 35 7 21 -27 19 -64 -4z"/>
<path d="M6170 10953 c-808 -42 -1585 -296 -2265 -741 -147 -95 -330 -232
-452 -337 l-83 -70 44 -3 c43 -3 49 1 156 87 702 566 1534 904 2430 987 187
17 612 17 798 1 72 -7 132 -9 132 -5 0 4 -5 18 -11 31 -13 29 -32 33 -255 47
-137 9 -361 10 -494 3z"/>
<path d="M6931 10920 c0 -8 4 -24 9 -35 5 -13 9 -14 9 -5 0 8 -4 24 -9 35 -5
13 -9 14 -9 5z"/>
<path d="M7019 10884 c-5 -15 -8 -28 -7 -29 2 -2 50 -10 108 -20 841 -137
1632 -514 2270 -1080 126 -112 300 -289 398 -403 34 -40 62 -70 62 -68 0 3
-21 39 -46 81 -28 47 -44 83 -41 95 5 19 -15 45 -26 34 -3 -3 -12 7 -20 23
-19 35 -250 262 -372 364 -631 530 -1392 882 -2195 1015 -114 19 -119 18 -131
-12z"/>
<path d="M8942 10836 c-46 -28 -67 -46 -58 -49 17 -7 54 2 81 19 17 11 63 75
53 73 -2 0 -36 -20 -76 -43z"/>
<path d="M3127 10815 c-46 -24 -118 -87 -113 -100 8 -22 259 -355 267 -355 4
0 20 11 35 23 l27 24 -56 74 c-45 59 -53 75 -41 82 13 8 52 -10 159 -74 30
-17 30 -17 68 11 l38 28 -85 46 c-46 25 -91 46 -99 46 -11 0 -13 11 -9 49 10
112 -97 195 -191 146z m88 -91 c35 -38 36 -76 4 -109 -21 -22 -16 -26 -76 59
l-27 38 23 19 c31 26 47 24 76 -7z"/>
<path d="M6130 10783 c-1036 -73 -1957 -468 -2719 -1167 -75 -69 -158 -150
-184 -180 -43 -50 -46 -56 -37 -87 15 -50 13 -52 -27 -45 l-38 5 30 -14 c17
-8 37 -12 45 -10 8 2 40 -9 70 -25 64 -34 62 -39 -5 -10 -26 11 -49 20 -51 20
-2 0 -4 -38 -4 -85 0 -88 -14 -141 -48 -178 -17 -19 -91 -61 -97 -55 -14 16
-35 77 -49 141 -10 42 -19 77 -21 77 -2 0 -32 -37 -67 -82 -273 -352 -494
-752 -648 -1173 -131 -358 -204 -676 -252 -1095 -17 -153 -15 -735 4 -880 l13
-105 53 2 c40 2 52 -1 52 -12 0 -12 16 -15 80 -15 l81 0 -6 33 c-34 197 -44
666 -21 914 28 289 71 523 147 786 30 104 37 142 29 157 -15 28 -12 39 14 51
18 9 36 44 81 157 192 492 457 910 836 1325 l62 67 -20 23 c-21 23 -83 128
-83 141 0 4 4 5 9 2 5 -3 40 -10 78 -16 100 -14 130 -3 194 73 29 34 54 64 56
66 1 2 10 -6 20 -18 l18 -21 70 56 c667 537 1448 848 2300 915 147 12 629 7
686 -7 24 -5 28 -2 38 29 7 19 10 41 9 48 -2 9 8 15 30 17 39 4 40 -2 2 -52
-17 -22 -29 -40 -27 -42 1 -1 21 -4 44 -7 31 -5 45 -2 55 10 12 15 11 15 -9 4
-27 -14 -28 -6 -8 42 19 45 19 47 -1 47 -14 0 -14 2 -3 16 12 14 14 14 25 -1
8 -11 20 -15 30 -11 9 3 22 2 29 -4 10 -8 15 -7 21 1 5 9 9 8 14 -6 4 -13 -5
-30 -32 -59 -21 -23 -38 -44 -38 -47 0 -4 24 -9 53 -13 74 -10 285 -53 397
-81 379 -95 784 -264 1119 -465 94 -56 133 -74 162 -75 51 -1 114 -46 159
-113 19 -28 71 -79 115 -113 363 -282 722 -690 972 -1105 50 -83 71 -110 80
-102 8 6 58 7 142 3 l129 -7 6 -30 c9 -47 7 -83 -6 -101 -12 -15 -22 -14 -122
18 -60 19 -112 35 -116 35 -3 0 24 -62 61 -137 85 -175 165 -372 224 -555 47
-146 115 -409 115 -447 0 -23 17 -29 22 -8 2 10 40 -2 136 -44 101 -44 132
-53 128 -41 -3 9 -14 67 -26 127 -73 383 -216 797 -393 1140 l-62 120 -102 3
c-73 2 -103 6 -103 15 0 14 33 69 73 126 l28 39 -67 103 c-702 1083 -1842
1798 -3129 1963 -204 26 -368 36 -578 34 -111 -1 -222 -3 -247 -5z m980 -103
c0 -10 8 -23 17 -29 10 -5 15 -12 13 -15 -10 -10 -63 40 -56 52 11 19 26 14
26 -8z m-20 -59 c0 -17 -15 -19 -28 -5 -11 12 -9 14 8 14 11 0 20 -4 20 -9z
m119 -10 c7 -5 10 -14 7 -20 -10 -15 -17 -14 -46 9 l-25 20 25 0 c14 0 31 -4
39 -9z m354 -186 c26 -36 45 -65 42 -65 -11 0 -175 85 -175 91 0 5 65 36 80
38 3 0 26 -29 53 -64z"/>
<path d="M9065 10690 c-9 -15 -7 -17 41 -25 33 -5 43 -3 47 9 4 10 1 16 -7 16
-7 0 -27 3 -44 6 -18 4 -32 1 -37 -6z"/>
<path d="M11143 10679 c15 -58 28 -179 32 -297 l5 -124 121 -160 c652 -869
1062 -1881 1193 -2948 29 -235 37 -355 43 -650 6 -327 4 -320 72 -320 62 0 84
-10 76 -34 -15 -44 -17 -86 -6 -86 7 0 9 -5 6 -10 -18 -28 72 -97 96 -73 5 5
12 134 15 294 22 987 -181 1943 -601 2842 -255 544 -582 1046 -984 1507 -54
61 -73 78 -68 59z"/>
<path d="M2860 10604 c-41 -36 -79 -69 -84 -74 -7 -7 246 -321 279 -344 9 -7
38 13 99 64 l87 73 -23 26 c-13 14 -24 28 -25 30 -1 2 -28 -18 -59 -45 l-57
-49 -38 45 c-39 44 -39 45 -19 61 11 9 33 29 51 43 l31 26 -25 30 -25 29 -45
-39 c-25 -22 -50 -40 -55 -40 -17 0 -76 81 -65 88 5 4 30 24 56 45 l46 39 -21
29 c-12 16 -24 29 -27 29 -3 -1 -40 -30 -81 -66z"/>
<path d="M9778 10563 c-133 -155 -208 -246 -205 -249 1 -1 40 -34 87 -73 l84
-71 26 25 25 26 -57 52 -57 52 40 44 40 44 32 -29 c65 -61 66 -61 91 -29 l23
29 -46 39 c-25 22 -47 43 -48 46 -1 3 13 24 31 45 l34 40 37 -30 c86 -67 77
-65 103 -33 l22 27 -82 71 c-46 39 -86 71 -90 71 -4 0 -44 -44 -90 -97z"/>
<path d="M9530 10599 c0 -14 26 -27 68 -34 34 -5 41 -4 37 7 -6 14 -105 40
-105 27z"/>
<path d="M6975 10570 c-21 -23 -9 -26 18 -6 10 8 14 17 9 20 -5 3 -17 -3 -27
-14z"/>
<path d="M11071 10445 c-11 -45 -11 -48 19 -81 33 -38 34 -36 20 50 -13 79
-25 88 -39 31z"/>
<path d="M9599 10448 c-17 -24 -18 -29 -6 -19 18 14 42 51 33 51 -3 0 -15 -15
-27 -32z"/>
<path d="M9942 10301 c-84 -88 -152 -163 -152 -169 0 -5 25 -31 54 -56 l55
-47 37 16 37 15 -39 34 -39 34 35 39 c19 21 77 81 127 134 51 53 93 101 93
106 0 10 -42 53 -52 53 -3 0 -73 -72 -156 -159z"/>
<path d="M2572 10347 c-12 -13 -22 -27 -22 -31 0 -9 300 -326 309 -326 3 0 44
36 91 79 l85 79 -27 28 -28 28 -56 -54 -56 -55 -131 138 c-73 75 -135 137
-138 137 -3 0 -15 -10 -27 -23z"/>
<path d="M11040 10240 c0 -17 -4 -19 -27 -14 l-27 7 23 -31 c25 -36 41 -48 41
-33 0 6 -4 11 -9 11 -5 0 -7 9 -4 20 4 15 11 19 25 14 19 -6 19 -5 3 20 -21
31 -25 32 -25 6z"/>
<path d="M10199 10068 c-75 -90 -139 -169 -143 -175 -4 -7 -2 -22 4 -34 12
-21 12 -21 41 7 28 26 28 28 12 47 -17 18 -13 23 122 151 124 118 138 135 126
150 -7 9 -16 16 -20 16 -4 0 -68 -73 -142 -162z"/>
<path d="M11076 10185 c-18 -13 -17 -15 17 -31 32 -16 34 -19 30 -54 -5 -35 1
-46 69 -136 578 -768 968 -1702 1113 -2659 51 -342 65 -529 65 -895 0 -290 -6
-420 -31 -645 -120 -1116 -573 -2223 -1256 -3072 -71 -89 -80 -104 -65 -113
14 -8 13 -9 -8 -10 -19 0 -42 -20 -95 -82 -173 -204 -514 -534 -750 -724 -734
-592 -1619 -1016 -2516 -1204 -106 -23 -107 -23 -117 -57 l-11 -35 37 7 c271
48 702 172 1022 295 1391 535 2546 1583 3214 2919 346 689 542 1380 622 2186
22 215 25 791 6 1005 -107 1183 -504 2223 -1205 3160 -60 80 -112 148 -115
152 -4 4 -15 0 -26 -7z"/>
<path d="M2362 10127 c-12 -13 -22 -26 -22 -29 0 -3 74 -76 164 -162 l163
-156 83 91 83 90 -27 27 -26 27 -54 -60 -54 -60 -34 30 c-18 16 -78 74 -134
127 -56 54 -105 98 -111 98 -5 0 -19 -10 -31 -23z"/>
<path d="M2211 9958 c-39 -46 -71 -86 -71 -90 0 -4 77 -73 171 -154 141 -121
173 -144 183 -133 7 8 41 47 75 88 l63 74 -27 26 -26 26 -52 -57 -52 -57 -45
39 -44 39 30 33 c59 64 59 65 28 91 l-28 24 -34 -41 c-19 -22 -38 -45 -42 -50
-9 -9 -90 49 -90 64 0 4 20 30 45 57 l44 50 -28 27 -28 27 -72 -83z"/>
<path d="M10503 10018 c-10 -17 -41 -138 -34 -138 2 0 15 10 27 21 l23 22 28
-34 c15 -18 37 -43 48 -56 l20 -22 29 23 29 24 -73 86 c-40 47 -76 86 -80 86
-5 0 -12 -6 -17 -12z"/>
<path d="M10429 9792 c-16 -37 -15 -39 8 -66 l23 -27 29 24 29 24 -32 41 c-17
23 -33 41 -36 42 -3 0 -12 -17 -21 -38z"/>
<path d="M2062 9774 c-47 -32 -82 -94 -82 -142 0 -38 5 -49 35 -78 49 -46 90
-51 180 -25 90 26 97 26 120 1 24 -27 14 -60 -32 -100 -35 -31 -36 -33 -20
-58 8 -15 20 -28 26 -30 15 -5 87 65 105 102 28 59 21 103 -22 146 -52 53 -91
58 -193 29 -89 -26 -112 -21 -117 23 -2 18 7 34 34 58 36 31 37 33 21 58 -20
34 -27 36 -55 16z"/>
<path d="M10540 9660 c-96 -71 -176 -133 -178 -138 -2 -6 8 -22 21 -37 l24
-28 74 56 c59 45 75 53 82 41 7 -13 -28 -89 -79 -169 -11 -17 -9 -25 16 -58
l28 -39 42 74 c22 40 43 85 47 100 4 23 9 27 29 22 21 -6 24 -3 24 25 0 23 5
31 17 31 13 0 14 3 5 12 -9 9 -15 8 -24 -4 -7 -8 -30 -18 -50 -21 l-38 -6 0
53 c0 59 5 69 30 56 27 -14 75 35 90 93 7 26 15 47 19 47 9 0 63 -189 56 -200
-3 -4 -19 -11 -35 -15 -34 -7 -34 -9 -20 -36 15 -28 38 -23 77 16 31 31 33 36
20 50 -8 8 -32 57 -53 110 -20 52 -40 95 -43 95 -4 0 -85 -58 -181 -130z"/>
<path d="M7361 9406 l-643 -371 61 -8 61 -9 -43 -23 c-79 -43 -107 -60 -107
-68 0 -5 143 -258 155 -275 1 -1 112 61 246 138 227 132 244 140 257 123 7
-10 212 -362 454 -783 243 -421 463 -802 490 -847 l48 -82 183 106 c100 58
184 106 186 108 8 9 -392 685 -415 700 -16 10 -23 22 -19 33 3 12 -95 192
-279 510 l-284 492 237 136 c130 74 240 139 245 144 7 7 -122 246 -178 331
-10 15 -95 -32 -655 -355z m-165 -313 c-1 -2 -21 5 -44 14 -38 15 -42 19 -42
52 l0 35 44 -49 c24 -28 43 -51 42 -52z m-1 -23 c35 -15 105 -92 105 -115 0
-11 -199 0 -209 11 -7 7 2 72 18 132 1 5 38 -8 86 -28z"/>
<path d="M3336 9745 c-41 -12 -66 -30 -148 -112 -55 -54 -122 -124 -150 -156
-45 -52 -48 -57 -26 -52 15 4 29 2 32 -4 10 -16 26 -13 20 3 -3 8 1 16 9 18
21 5 343 318 326 317 -8 0 -36 -7 -63 -14z"/>
<path d="M10337 9604 c-10 -20 -17 -38 -15 -39 2 -2 16 8 32 22 25 21 27 26
14 39 -12 13 -16 10 -31 -22z"/>
<path d="M1761 9347 c-39 -63 -73 -120 -76 -128 -3 -9 6 -21 24 -32 l30 -18
27 43 c15 24 28 44 29 46 1 1 70 -41 154 -93 83 -53 157 -98 164 -101 7 -2 21
10 31 27 23 39 31 30 -156 148 l-148 93 25 36 c14 20 25 42 25 48 0 10 -41 44
-54 44 -2 0 -36 -51 -75 -113z"/>
<path d="M2914 9338 c-525 -628 -874 -1385 -1009 -2188 -45 -272 -59 -446 -59
-740 -1 -250 17 -552 33 -579 3 -5 19 -13 34 -16 l28 -7 -6 63 c-2 35 -10 119
-16 187 -15 164 -6 674 15 847 111 891 454 1697 1003 2358 47 56 62 81 55 90
-6 6 -12 22 -14 35 -3 20 -11 14 -64 -50z"/>
<path d="M10915 9141 c-44 -26 -65 -64 -65 -113 0 -137 170 -188 245 -75 77
118 -61 261 -180 188z"/>
<path d="M1628 9123 c-42 -46 -59 -79 -61 -121 -1 -47 21 -85 65 -108 48 -25
95 -21 176 15 76 34 104 34 122 1 13 -25 -2 -65 -40 -100 l-29 -27 30 -29 31
-29 30 35 c44 52 60 88 61 137 0 36 -5 49 -32 77 -36 37 -93 58 -131 50 -14
-4 -56 -20 -93 -37 -77 -35 -100 -31 -105 19 -2 22 5 37 27 58 l30 29 -22 28
c-11 16 -24 29 -27 29 -3 0 -18 -12 -32 -27z"/>
<path d="M1447 8780 l-46 -100 52 -26 c28 -15 120 -59 204 -100 l153 -73 50
99 c28 55 50 102 50 105 0 6 -61 38 -65 33 -1 -2 -17 -31 -34 -65 -17 -35 -33
-63 -36 -63 -11 0 -95 45 -95 51 0 3 11 32 25 63 l25 56 -30 15 c-16 8 -31 15
-34 15 -3 0 -17 -27 -31 -59 l-27 -59 -49 22 c-27 11 -49 26 -49 31 0 6 11 34
25 63 14 30 25 57 25 61 0 8 -44 31 -59 31 -4 0 -28 -45 -54 -100z"/>
<path d="M10205 8848 c-11 -6 -21 -12 -23 -14 -3 -2 18 -39 35 -63 1 -2 9 2
18 9 13 11 15 8 15 -24 0 -25 15 -62 51 -123 208 -359 389 -824 482 -1238 78
-346 108 -615 108 -990 1 -747 -166 -1426 -513 -2096 -79 -152 -81 -157 -68
-189 l14 -33 17 21 c28 35 203 388 264 532 245 583 368 1239 351 1875 -16 633
-151 1216 -413 1789 -91 199 -291 557 -311 556 -4 0 -16 -6 -27 -12z"/>
<path d="M6423 8835 c-148 -27 -349 -109 -488 -200 -33 -21 -99 -77 -146 -125
-67 -66 -94 -101 -122 -160 -86 -180 -73 -364 39 -561 84 -150 177 -243 311
-312 148 -76 234 -93 592 -117 168 -12 280 -34 349 -69 106 -54 177 -210 143
-314 -27 -80 -120 -163 -256 -228 -92 -44 -164 -64 -290 -79 -49 -6 -90 -12
-91 -13 -1 -1 6 -47 16 -102 9 -55 25 -144 35 -197 l17 -98 38 0 c156 0 437
104 635 235 144 96 261 240 306 376 30 91 32 237 6 339 -16 59 -104 260 -115
260 -2 0 -13 -11 -24 -25 -18 -24 -46 -36 -33 -15 3 6 -3 10 -13 10 -15 0 -19
-5 -15 -19 7 -26 -29 -37 -68 -21 -38 16 -37 23 7 39 19 7 39 22 44 34 5 12 9
16 9 8 1 -17 51 26 51 44 0 6 -13 24 -30 40 l-30 29 -1 -50 c-1 -55 -7 -45
-23 36 -11 53 -13 57 -80 102 -140 97 -302 138 -632 162 -198 15 -324 35 -376
62 -126 65 -177 201 -115 307 66 112 334 237 508 237 30 0 39 4 39 18 0 16
-53 307 -65 360 -6 26 -23 27 -132 7z"/>
<path d="M11197 8557 l-198 -82 5 -31 c8 -57 56 -144 90 -165 76 -46 196 1
196 78 0 27 -1 27 38 7 43 -21 101 -5 137 38 23 27 26 38 21 72 -9 54 -61 166
-78 166 -7 -1 -102 -38 -211 -83z m203 -36 c25 -47 -5 -91 -61 -91 -25 0 -69
39 -69 60 0 8 87 48 107 49 7 1 17 -8 23 -18z m-182 -76 c24 -52 6 -86 -50
-100 -21 -5 -33 -1 -52 19 -38 37 -33 53 27 80 66 31 62 31 75 1z"/>
<path d="M1358 8551 c-26 -21 -74 -116 -84 -167 l-6 -29 206 -84 c112 -46 210
-80 216 -76 22 13 62 119 64 165 1 59 -23 96 -80 122 -49 21 -93 18 -115 -8
-11 -13 -15 -11 -28 17 -33 69 -122 100 -173 60z m112 -91 c20 -20 26 -65 12
-88 -7 -10 -20 -8 -63 10 -30 12 -56 23 -58 25 -3 2 3 19 12 38 14 29 22 35
47 35 17 0 39 -9 50 -20z m190 -70 c23 -23 26 -58 6 -85 -13 -18 -15 -18 -70
4 -31 13 -56 28 -56 33 0 14 21 52 34 60 21 14 66 8 86 -12z"/>
<path d="M11325 8248 c-110 -39 -202 -73 -204 -74 -4 -3 56 -184 68 -202 8
-13 56 -8 66 8 2 4 -5 35 -16 70 -12 34 -17 65 -13 69 11 10 96 43 98 39 2 -2
12 -28 23 -58 19 -50 23 -55 48 -53 43 3 47 15 25 78 -11 32 -19 59 -18 60 9
6 90 35 98 35 6 0 10 -4 10 -10 0 -5 9 -34 21 -65 21 -57 38 -67 72 -42 16 11
15 19 -16 112 -20 59 -40 101 -48 102 -8 1 -104 -30 -214 -69z"/>
<path d="M387 8185 c-59 -31 -126 -76 -149 -102 -28 -31 -111 -395 -159 -695
-23 -148 -58 -451 -53 -457 7 -7 239 -17 247 -10 5 3 17 78 27 165 41 355 126
775 216 1066 4 12 -5 24 -28 38 -41 25 -43 25 -101 -5z"/>
<path d="M4719 7881 c-272 -157 -505 -293 -517 -301 -23 -15 -19 -21 564
-1030 322 -558 591 -1025 598 -1037 11 -22 24 -15 531 277 286 165 522 305
523 310 2 6 -18 47 -44 93 -76 131 -66 125 -107 63 -63 -95 -145 -179 -212
-218 l-64 -36 -45 17 c-25 9 -47 19 -50 22 -3 2 8 55 23 117 16 62 25 112 20
112 -6 0 -245 -135 -355 -201 l-31 -19 -148 256 c-81 140 -148 262 -149 270
-1 10 102 75 283 179 157 91 289 169 294 174 9 9 -164 324 -185 337 -5 3 -142
-71 -305 -165 -163 -94 -297 -170 -299 -168 -6 6 -286 493 -287 500 -1 5 142
92 318 193 176 102 324 189 329 194 7 7 -121 245 -178 331 -10 14 -76 -21
-507 -270z"/>
<path d="M11534 8009 c-47 -13 -80 -53 -109 -130 -30 -78 -61 -107 -94 -90
-23 13 -45 72 -39 106 4 20 0 24 -30 30 -54 10 -60 -5 -38 -98 25 -105 92
-147 181 -112 52 19 78 52 105 131 11 31 25 63 31 70 17 21 57 17 69 -6 8 -15
21 -20 50 -20 38 0 38 1 31 28 -13 45 -33 71 -67 87 -36 17 -45 17 -90 4z"/>
<path d="M1241 7903 c-122 -61 -78 -253 58 -253 109 0 176 108 121 197 -39 64
-116 88 -179 56z"/>
<path d="M11696 7741 c-3 -5 -15 -7 -25 -4 -19 5 -19 3 -5 -49 7 -29 14 -54
14 -55 0 -2 -6 -3 -14 -3 -7 0 -20 -10 -29 -22 -13 -20 -18 -21 -36 -11 -17
11 -43 8 -152 -17 -73 -17 -135 -32 -137 -35 -8 -7 8 -75 18 -75 5 0 67 14
138 30 72 17 132 30 135 30 3 0 8 10 11 23 6 20 8 20 19 5 8 -10 22 -14 39
-11 23 4 26 1 32 -32 5 -26 11 -35 22 -31 9 4 14 -1 14 -15 0 -15 5 -19 16
-15 9 3 20 6 25 6 13 0 11 48 -3 52 -6 2 -12 25 -14 50 -1 25 -14 71 -28 101
-15 30 -24 62 -20 71 6 17 -11 23 -20 7z m59 -231 c3 -5 1 -10 -4 -10 -6 0
-11 5 -11 10 0 6 2 10 4 10 3 0 8 -4 11 -10z"/>
<path d="M7365 7489 c-9 -28 1 -36 14 -10 7 12 7 22 2 26 -5 3 -13 -4 -16 -16z"/>
<path d="M1046 7289 c-65 -18 -96 -75 -96 -180 l0 -55 221 -33 c122 -18 222
-31 224 -29 1 2 5 19 8 40 l5 36 -62 11 c-34 6 -74 11 -89 11 -14 0 -28 4 -32
9 -11 18 24 38 110 60 47 13 88 28 90 35 2 6 6 27 10 48 l6 36 -91 -28 c-50
-16 -97 -34 -106 -41 -8 -6 -15 -10 -17 -8 -1 2 -7 13 -13 23 -27 49 -109 80
-168 65z m106 -106 c10 -9 18 -30 18 -46 l0 -30 -52 7 c-29 3 -61 6 -70 6 -13
0 -18 8 -18 29 0 57 74 78 122 34z"/>
<path d="M11662 7250 c-30 -18 -59 -58 -104 -139 -21 -38 -63 -51 -86 -27 -12
12 -17 34 -17 76 l1 60 -34 6 c-18 4 -36 4 -39 0 -4 -4 -6 -35 -6 -69 1 -101
40 -156 116 -164 80 -9 125 26 186 145 42 83 107 63 98 -30 -4 -50 2 -58 48
-58 56 0 35 161 -27 204 -31 22 -96 20 -136 -4z"/>
<path d="M3595 7215 c-159 -35 -372 -146 -636 -332 -68 -47 -147 -105 -176
-128 l-51 -42 585 -1014 c322 -558 589 -1018 593 -1023 23 -24 444 173 631
296 114 75 250 210 302 298 130 224 111 483 -54 730 -85 126 -179 206 -299
251 -61 23 -190 28 -268 11 -24 -6 -44 -6 -48 -1 -3 5 8 26 25 46 52 65 91
180 91 269 0 177 -99 398 -236 524 -126 116 -279 154 -459 115z m120 -434 c81
-37 174 -169 194 -276 20 -108 -27 -246 -107 -315 -53 -45 -180 -122 -194
-118 -5 2 -83 131 -173 286 l-163 282 46 33 c166 119 295 155 397 108z m559
-879 c63 -34 108 -88 158 -189 74 -150 60 -282 -41 -383 -43 -43 -232 -150
-264 -150 -11 0 -338 555 -345 583 -1 7 17 23 40 35 171 94 209 113 258 126
69 19 130 12 194 -22z"/>
<path d="M8821 7201 c-92 -33 -158 -68 -271 -144 -92 -62 -200 -146 -200 -157
0 -15 790 -1375 799 -1375 5 0 61 29 125 65 80 45 115 70 113 80 -2 8 -76 140
-164 292 l-161 277 53 16 c29 8 59 15 67 15 7 0 136 -90 287 -201 150 -110
279 -199 285 -197 20 5 276 152 276 159 0 4 -126 93 -280 198 -259 176 -285
191 -335 197 -30 4 -55 8 -55 11 0 2 14 28 31 58 17 30 28 58 25 63 -3 5 2 31
11 57 34 101 -10 273 -108 420 -87 129 -187 188 -329 193 -74 2 -96 -1 -169
-27z m164 -280 c102 -46 192 -223 171 -336 -9 -45 -70 -108 -143 -147 l-50
-27 -119 206 c-65 114 -120 212 -122 218 -3 13 70 64 128 89 47 20 87 19 135
-3z"/>
<path d="M10726 7062 c-7 -12 -118 -65 -182 -86 l-50 -16 15 -108 c19 -144 21
-723 3 -877 -60 -499 -182 -931 -385 -1359 l-61 -128 22 -39 c13 -22 20 -45
16 -51 -4 -6 -3 -8 2 -5 6 3 22 -15 37 -40 22 -35 24 -44 11 -39 -44 17 -157
37 -164 30 -5 -5 -45 -67 -89 -138 -347 -554 -818 -1016 -1372 -1346 -74 -44
-141 -85 -149 -92 -8 -7 -16 -12 -18 -10 -1 2 -8 1 -15 -2 -7 -3 5 -20 32 -45
44 -39 66 -45 54 -16 -3 8 -1 15 3 14 11 0 98 -109 92 -114 -2 -2 -58 -29
-124 -59 -109 -51 -123 -55 -156 -46 -32 9 -38 17 -58 69 -20 55 -21 61 -6 90
l16 31 -57 -26 c-380 -172 -811 -301 -1128 -339 -73 -9 -78 -11 -66 -34 8 -14
-10 -40 -94 -137 -57 -65 -102 -120 -100 -122 13 -13 57 23 131 109 47 55 89
97 93 94 19 -11 92 -145 86 -156 -9 -13 17 -10 202 27 257 52 495 122 748 221
174 69 407 179 471 224 27 19 56 34 64 35 8 1 71 35 140 77 103 63 131 86 160
128 31 45 35 49 47 33 11 -16 17 -14 69 22 73 50 309 238 319 254 4 6 -3 22
-16 36 -12 13 -21 26 -18 28 18 16 153 76 173 76 17 0 50 28 122 103 251 264
462 540 633 829 45 76 50 90 41 114 -8 21 -7 31 6 45 15 17 18 17 29 3 9 -13
25 12 89 148 226 470 357 922 423 1453 26 205 25 748 -1 970 -17 152 -26 189
-40 167z m-2302 -4318 c5 -14 4 -15 -9 -4 -17 14 -19 20 -6 20 5 0 12 -7 15
-16z"/>
<path d="M924 6860 c-9 -107 -8 -111 11 -115 39 -8 427 -37 431 -32 7 6 28
217 23 222 -2 2 -20 5 -39 7 l-35 3 -3 -50 c-4 -90 -7 -95 -55 -95 -64 0 -70
8 -65 78 l4 60 -37 4 -37 3 -7 -68 c-7 -64 -9 -68 -29 -63 -11 3 -36 6 -55 6
l-34 0 7 75 7 75 -39 0 -39 0 -9 -110z"/>
<path d="M11650 6949 c-107 -10 -206 -18 -218 -18 -22 -1 -24 -4 -18 -48 3
-27 8 -79 11 -116 l7 -68 36 3 36 3 -2 55 c-2 30 -5 62 -8 71 -5 19 21 29 77
29 34 0 37 -2 43 -37 3 -21 6 -50 6 -65 0 -24 4 -28 29 -28 39 0 46 14 42 83
-3 55 -2 57 22 57 13 0 38 3 55 6 l30 6 7 -77 8 -77 30 6 c16 3 34 6 39 6 5 0
7 12 4 28 -2 15 -8 66 -11 115 -5 57 -11 87 -18 86 -7 -1 -100 -10 -207 -20z"/>
<path d="M14 6815 c-11 -88 -12 -758 -1 -845 l8 -65 90 3 c49 2 89 0 88 -5 0
-4 -10 -53 -23 -108 l-23 -100 -56 -9 -57 -9 5 -36 c84 -622 202 -1087 411
-1610 366 -916 919 -1708 1678 -2401 l69 -63 13 24 c30 57 56 160 49 195 l-6
35 53 -26 53 -26 -85 77 c-119 107 -365 358 -480 489 -803 913 -1333 2070
-1485 3240 -8 66 -18 135 -21 152 l-5 33 -27 -20 c-31 -22 -82 -37 -82 -23 0
5 13 47 29 93 24 74 31 85 51 84 22 -1 22 0 15 70 -5 39 -9 235 -10 435 -1
420 12 375 -118 410 -56 15 -85 29 -102 48 l-23 28 -8 -70z m116 -1347 c-17
-16 -34 -28 -39 -28 -5 0 5 42 22 93 l31 92 9 -65 c8 -64 8 -65 -23 -92z"/>
<path d="M7831 6624 c-184 -106 -338 -197 -343 -202 -5 -5 774 -1375 796
-1399 2 -2 137 75 302 170 164 95 323 186 351 203 29 16 53 31 53 34 -1 15
-130 225 -138 223 -5 -1 -107 -58 -226 -127 -120 -70 -219 -126 -221 -126 -10
0 -205 354 -198 360 4 5 91 56 193 115 102 59 188 110 192 113 6 6 -100 203
-121 225 -4 4 -97 -44 -207 -107 -109 -63 -202 -112 -205 -108 -12 13 -189
323 -189 331 0 5 92 61 204 125 112 65 211 123 220 129 14 11 8 26 -48 122
-35 60 -67 110 -72 111 -5 1 -159 -85 -343 -192z"/>
<path d="M1294 6666 c-2 -6 -5 -42 -6 -80 l-3 -69 -179 2 c-99 1 -183 4 -187
6 -9 6 -20 -68 -11 -76 4 -4 106 -10 228 -14 l221 -6 6 77 c4 42 7 96 7 119 0
42 -1 43 -36 47 -20 2 -38 0 -40 -6z"/>
<path d="M11551 6653 l-124 -4 7 -67 c3 -37 6 -92 6 -122 l0 -56 38 4 37 4 -3
79 -4 79 109 0 c59 0 145 3 191 7 l82 6 0 38 0 39 -107 -2 c-60 -1 -164 -4
-232 -5z"/>
<path d="M1315 6393 l-30 -4 3 -79 4 -80 -124 0 c-68 0 -153 -3 -190 -7 l-68
-6 0 -39 0 -39 228 7 c125 3 229 8 231 10 6 5 -11 244 -18 242 -3 0 -19 -3
-36 -5z"/>
<path d="M11435 6254 c-4 -63 -5 -117 -4 -119 2 -2 20 -5 39 -7 l35 -3 5 79 5
79 119 -2 118 -2 -6 25 c-5 20 -1 28 16 38 20 12 12 14 -72 19 -52 4 -129 7
-171 8 l-77 1 -7 -116z"/>
<path d="M1302 6026 c5 -83 3 -86 -73 -86 -34 0 -37 2 -43 38 -3 20 -6 50 -6
65 0 26 -2 28 -37 25 l-38 -3 3 -67 c4 -67 3 -68 -21 -68 -13 0 -38 -3 -54 -6
l-30 -6 -8 77 -7 77 -36 -7 c-21 -4 -37 -8 -38 -8 0 -1 4 -52 9 -114 l10 -112
41 5 c44 5 390 34 407 34 10 0 8 50 -7 183 -6 46 -6 47 -41 47 l-36 0 5 -74z"/>
<path d="M11426 6043 c-3 -27 -8 -78 -12 -115 l-6 -68 41 0 41 0 0 48 c0 82 6
92 55 92 69 0 71 -2 65 -74 l-5 -64 37 -4 37 -3 7 68 7 69 30 -6 c16 -3 41 -6
55 -6 l25 0 -6 -75 -7 -75 39 0 39 0 7 98 c4 53 7 104 8 112 2 12 -31 18 -188
32 -285 25 -262 27 -269 -29z"/>
<path d="M6750 6000 c-63 -37 -114 -72 -113 -77 3 -9 782 -1362 795 -1379 6
-8 121 53 370 197 199 115 365 212 369 216 7 7 -98 203 -120 225 -4 4 -116
-55 -250 -133 -134 -77 -245 -139 -246 -137 -2 2 -78 134 -170 293 -92 160
-174 296 -184 303 -9 7 -15 18 -13 23 4 15 -301 539 -313 538 -5 0 -62 -31
-125 -69z"/>
<path d="M12540 6000 c-8 -5 -12 -11 -9 -14 3 -3 14 1 25 9 21 16 8 20 -16 5z"/>
<path d="M12516 5865 c-4 -55 -18 -183 -32 -285 -197 -1456 -909 -2797 -1999
-3764 -60 -54 -100 -96 -99 -107 0 -13 -3 -16 -11 -9 -8 6 -18 5 -29 -3 -15
-11 -11 -18 39 -69 53 -55 62 -77 49 -112 -7 -19 -43 -20 -134 -2 l-65 12 3
43 4 43 -69 -54 c-296 -236 -770 -529 -1123 -695 -594 -280 -1178 -456 -1798
-544 l-84 -12 6 -46 c18 -148 18 -157 3 -169 -16 -14 -36 7 -107 112 l-33 49
29 24 29 25 -30 -6 c-188 -34 -896 -42 -1195 -13 -564 55 -1055 164 -1555 345
-637 230 -1223 558 -1745 975 -80 64 -147 117 -150 117 -6 0 -90 -234 -90
-249 0 -21 287 -238 510 -387 1273 -850 2795 -1216 4315 -1038 1000 116 1958
470 2800 1034 106 71 136 96 132 110 -2 10 7 39 22 66 25 45 29 48 86 61 33 8
69 11 81 9 15 -4 51 19 140 91 513 414 951 894 1321 1448 123 186 311 510 305
529 -3 10 38 309 44 315 2 2 17 -25 33 -59 l30 -64 36 79 c20 44 38 82 41 86
2 4 -25 24 -61 45 -36 21 -65 44 -65 51 0 21 21 15 83 -23 32 -20 60 -34 61
-33 8 9 124 296 163 403 124 337 239 767 298 1115 18 105 22 92 -59 178 -22
24 -38 44 -35 47 2 2 33 10 69 18 64 14 65 15 68 50 3 31 -2 42 -35 72 -41 38
-59 45 -49 20 21 -55 19 -59 -39 -89 l-56 -28 -27 26 c-26 26 -26 26 -14 104
13 86 15 207 3 238 -5 12 -10 -17 -15 -80z"/>
<path d="M1220 5790 c-24 -12 -47 -38 -70 -80 -54 -96 -74 -113 -110 -90 -10
6 -15 26 -15 62 0 58 -6 68 -47 68 -25 0 -28 -4 -29 -32 -7 -138 35 -195 133
-186 45 5 57 11 87 45 20 22 48 63 63 91 34 64 70 79 101 41 15 -19 18 -34 14
-76 -6 -54 2 -62 54 -63 24 0 33 60 19 125 -21 101 -109 144 -200 95z"/>
<path d="M2050 5780 c0 -53 78 -106 94 -64 3 9 6 33 6 55 l0 39 -50 0 c-49 0
-50 -1 -50 -30z"/>
<path d="M11398 5773 c-3 -21 -4 -39 -3 -41 1 -1 40 -7 86 -13 46 -7 88 -15
92 -19 17 -15 -24 -38 -95 -55 -40 -10 -80 -22 -89 -26 -18 -9 -31 -89 -15
-89 21 0 153 43 174 57 13 8 24 13 25 11 29 -58 64 -81 135 -86 51 -4 61 -1
90 23 37 31 52 77 52 158 0 39 -4 57 -12 57 -7 0 -103 14 -213 30 -110 16
-205 30 -211 30 -7 0 -14 -17 -16 -37z m320 -89 c49 -6 52 -8 52 -35 0 -37
-37 -63 -76 -53 -42 10 -64 33 -64 66 0 31 2 32 88 22z"/>
<path d="M2328 5619 c-3 -8 -53 -41 -112 -74 -78 -45 -106 -65 -106 -80 0 -20
68 -286 75 -293 5 -5 225 138 225 147 0 11 -62 275 -69 295 -6 15 -9 16 -13 5z"/>
<path d="M5908 5513 c-65 -37 -118 -71 -118 -75 0 -16 548 -959 553 -951 3 4
8 27 12 50 4 24 10 45 14 47 4 3 34 8 67 11 l61 7 7 -102 c3 -57 5 -105 2
-107 -2 -2 -29 8 -60 24 -36 17 -59 24 -66 17 -6 -6 30 -77 101 -201 l110
-192 47 28 c26 15 187 108 357 206 171 98 316 183 323 190 11 10 2 32 -50 123
-44 79 -67 110 -78 106 -8 -3 -119 -66 -248 -140 -129 -75 -235 -134 -236
-132 -1 2 -51 89 -111 193 -60 105 -117 202 -127 217 -10 14 -31 50 -46 80
-60 112 -384 668 -390 668 -4 0 -60 -30 -124 -67z"/>
<path d="M1973 5405 c-18 -13 -20 -20 -12 -47 5 -18 23 -87 40 -153 18 -66 35
-124 39 -128 4 -4 18 1 31 12 l24 19 -18 64 c-10 34 -27 105 -39 156 -12 50
-27 92 -33 92 -6 0 -20 -7 -32 -15z"/>
<path d="M1028 5343 c-10 -2 -18 -8 -18 -13 0 -14 60 -274 65 -278 2 -2 19 -2
38 2 l34 6 -12 54 -12 53 91 21 c50 12 133 31 185 43 l93 21 -5 35 c-4 20 -8
38 -11 40 -3 4 -239 -45 -353 -74 -16 -3 -23 -1 -23 8 0 8 -5 31 -11 52 -10
37 -19 41 -61 30z"/>
<path d="M5605 5341 c-6 -5 -156 -93 -335 -196 -179 -103 -329 -191 -334 -195
-7 -7 739 -1318 788 -1385 11 -15 50 5 361 185 193 111 351 203 352 204 3 2
-117 209 -127 220 -6 6 -99 -42 -229 -117 -121 -70 -224 -127 -228 -127 -9 0
-203 333 -203 349 0 5 88 60 195 121 107 62 195 117 195 124 0 6 -29 59 -63
118 l-63 107 -198 -115 c-109 -63 -201 -114 -205 -114 -5 0 -112 179 -188 316
-12 21 -8 25 100 88 61 36 108 66 104 66 -5 0 -18 -5 -29 -11 -17 -9 -26 -5
-59 27 -27 26 -37 44 -33 56 3 11 0 18 -8 19 -16 1 21 17 41 18 11 1 9 -3 -4
-13 -16 -12 -9 -15 71 -30 49 -9 93 -16 98 -16 5 0 6 20 3 45 -4 28 -3 45 4
45 6 0 8 4 4 10 -3 5 14 14 37 21 24 6 46 13 51 16 4 2 7 0 7 -6 0 -6 -17 -15
-39 -22 l-38 -11 15 -37 16 -37 43 24 c24 13 43 28 43 33 0 13 -123 228 -130
229 -4 0 -10 -4 -15 -9z m-86 -152 c32 -11 39 -23 20 -35 -8 -5 -8 -8 0 -13 7
-5 -5 -12 -26 -19 l-38 -11 25 19 c17 13 20 20 10 20 -8 0 -24 7 -35 16 -17
13 -18 16 -5 24 18 12 11 12 49 -1z m80 -28 c-3 -6 -10 -7 -18 -2 -7 5 -10 14
-6 21 9 14 29 -2 24 -19z"/>
<path d="M11424 5131 c-17 -10 -39 -36 -48 -56 -54 -113 66 -233 179 -179 50
23 75 66 75 128 0 43 -4 53 -39 87 -34 35 -44 39 -87 39 -30 0 -61 -7 -80 -19z"/>
<path d="M1385 5082 c-47 -22 -69 -52 -96 -129 -23 -68 -35 -83 -65 -83 -29 0
-47 31 -47 82 0 37 0 38 -38 38 -39 0 -39 0 -39 -40 0 -75 47 -153 99 -165 37
-8 90 10 122 41 16 15 40 58 55 96 29 77 60 106 92 89 25 -14 45 -63 40 -100
-4 -26 -1 -29 30 -35 57 -9 61 1 41 95 -23 105 -105 152 -194 111z"/>
<path d="M2506 4936 c-9 -22 -19 -57 -22 -78 -6 -37 -11 -41 -78 -75 -39 -19
-72 -36 -74 -38 -1 -1 25 -62 58 -136 157 -348 351 -664 583 -954 57 -72 112
-137 122 -145 17 -14 18 -12 13 55 -3 39 -2 97 1 130 l6 60 52 5 51 5 -64 80
c-94 116 -281 398 -370 560 -81 145 -173 339 -229 485 l-33 84 -16 -38z"/>
<path d="M1562 4830 c-25 -11 -25 -13 8 -102 l17 -46 -54 -21 c-30 -12 -56
-21 -57 -21 -2 0 -8 19 -15 42 -27 89 -27 89 -58 76 -44 -19 -45 -22 -23 -77
11 -28 20 -55 20 -59 0 -9 -99 -47 -104 -41 -2 2 -13 34 -25 71 l-22 67 -30
-11 c-16 -5 -31 -13 -34 -18 -5 -8 49 -175 64 -199 7 -11 38 -3 164 40 85 30
150 57 145 60 -12 8 20 67 49 90 15 13 16 10 11 -33 -6 -55 1 -55 26 1 18 39
18 40 -6 113 -25 75 -35 84 -76 68z"/>
<path d="M4645 4784 c-33 -8 -111 -39 -172 -69 -310 -152 -401 -385 -248 -640
75 -124 182 -205 320 -240 33 -9 142 -22 243 -30 200 -17 270 -35 314 -83 62
-66 76 -152 35 -213 -55 -82 -186 -150 -329 -170 l-85 -12 7 -36 c5 -20 16
-80 25 -135 l18 -99 56 6 c175 19 425 148 523 270 59 75 90 148 96 227 13 186
-112 404 -278 487 -92 46 -162 62 -350 78 -182 15 -249 27 -292 53 -23 13 -31
14 -37 4 -12 -19 -38 -4 -46 26 -3 15 -17 39 -31 53 l-24 26 23 10 c14 6 28
24 31 39 4 15 16 40 27 55 42 59 188 127 307 144 36 5 52 11 52 22 0 8 -10 66
-21 129 l-22 114 -41 -1 c-23 0 -68 -7 -101 -15z"/>
<path d="M2208 4684 l-27 -14 44 -100 c203 -457 483 -885 818 -1252 121 -132
130 -140 122 -105 -5 17 -2 26 10 31 12 4 -7 31 -86 118 -330 362 -617 802
-798 1223 -24 55 -46 103 -50 107 -3 3 -18 0 -33 -8z"/>
<path d="M11078 4543 c-51 -107 -39 -181 34 -219 43 -22 102 -23 125 -1 19 16
20 15 36 -18 30 -62 113 -93 163 -60 27 17 79 117 90 171 l6 30 -204 82 c-111
45 -207 82 -211 82 -4 0 -22 -30 -39 -67z m131 -54 c56 -24 61 -34 30 -73 -51
-64 -148 2 -109 75 13 24 16 24 79 -2z m179 -73 c29 -11 52 -24 52 -28 0 -5
-7 -22 -15 -38 -38 -73 -138 -3 -109 75 4 9 9 15 13 13 4 -2 30 -12 59 -22z"/>
<path d="M1539 4501 c-17 -17 -29 -40 -29 -55 0 -25 0 -25 -37 -10 -29 13 -45
14 -73 5 -90 -27 -108 -101 -51 -216 18 -36 37 -65 42 -65 6 0 100 37 210 83
l200 82 -5 34 c-3 18 -15 54 -28 80 -23 46 -24 46 -108 68 -47 12 -86 22 -88
23 -2 0 -17 -13 -33 -29z m146 -66 c38 -37 32 -52 -32 -80 -61 -27 -66 -25
-80 24 -7 29 5 52 38 68 34 18 47 16 74 -12z m-176 -91 c12 -15 21 -30 21 -34
0 -13 -111 -53 -120 -44 -5 5 -12 21 -15 36 -15 60 74 93 114 42z"/>
<path d="M10940 4224 c-25 -53 -46 -100 -48 -104 -3 -9 57 -45 63 -38 1 2 17
31 34 66 17 34 33 62 36 62 11 0 95 -45 95 -51 0 -3 -11 -32 -25 -63 l-25 -57
26 -10 c15 -5 31 -12 36 -15 5 -3 20 21 34 53 14 32 27 59 29 61 2 2 26 -8 54
-23 l51 -25 -30 -60 c-16 -33 -30 -63 -30 -68 0 -9 43 -32 59 -32 8 0 105 200
99 204 -10 6 -409 196 -411 196 -1 -1 -22 -44 -47 -96z"/>
<path d="M10850 4040 c-67 -72 -79 -157 -30 -213 55 -63 115 -66 233 -12 62
29 70 30 92 9 20 -20 12 -49 -25 -89 l-29 -30 26 -30 26 -29 38 43 c85 96 72
182 -35 226 -45 19 -63 16 -160 -27 -56 -25 -73 -28 -92 -19 -38 17 -33 71 10
114 l33 33 -23 27 c-13 15 -26 27 -30 27 -3 0 -18 -13 -34 -30z"/>
<path d="M840 4046 c0 -8 121 -268 170 -366 357 -711 871 -1364 1485 -1885
861 -731 1934 -1213 3045 -1369 298 -42 280 -41 280 -11 0 23 4 25 48 26 29 1
5 6 -68 15 -193 23 -398 54 -552 85 -1688 334 -3134 1361 -4003 2844 -78 133
-262 490 -294 570 -7 17 -32 44 -61 63 -28 17 -50 30 -50 28z m4913 -3623
c-13 -2 -35 -2 -50 0 -16 2 -5 4 22 4 28 0 40 -2 28 -4z"/>
<path d="M10210 4021 c0 -13 -139 -218 -227 -334 -88 -115 -226 -279 -325
-383 -38 -39 -68 -73 -68 -75 0 -2 20 -3 45 -1 42 4 50 9 128 96 150 164 258
300 391 491 71 103 76 113 76 162 0 29 -4 53 -10 53 -5 0 -10 -4 -10 -9z"/>
<path d="M1749 3887 c-75 -50 -86 -137 -25 -204 27 -30 41 -36 82 -40 85 -7
146 48 146 131 0 107 -116 171 -203 113z"/>
<path d="M10657 3711 c-9 -16 -17 -31 -17 -34 0 -4 92 -64 278 -181 l42 -26
-25 -40 c-14 -22 -25 -44 -25 -49 0 -8 43 -41 54 -41 6 0 156 239 156 248 0 4
-13 16 -30 25 l-29 18 -27 -43 c-15 -24 -28 -44 -29 -46 -1 -1 -73 43 -161 98
-87 55 -160 100 -164 100 -3 0 -13 -13 -23 -29z"/>
<path d="M3326 3610 c3 -19 8 -41 10 -49 2 -7 -27 -45 -66 -84 -38 -38 -70
-74 -70 -78 0 -4 19 -28 43 -54 l42 -47 44 36 c24 20 47 33 51 29 4 -4 19 -53
35 -108 33 -116 32 -115 238 -280 161 -130 527 -379 527 -360 0 3 -7 16 -15
29 -19 29 -14 31 71 41 32 3 73 8 90 11 28 4 33 0 58 -46 15 -27 31 -50 36
-50 5 0 11 15 15 33 12 57 16 67 31 67 12 0 14 -7 9 -32 -12 -62 -36 -127 -57
-153 l-20 -26 106 -49 c122 -58 284 -125 418 -174 84 -30 97 -32 119 -20 34
19 45 17 25 -5 -16 -18 -15 -20 56 -41 261 -79 519 -132 812 -166 150 -17 604
-30 687 -20 l56 7 41 82 c23 45 62 106 88 135 l47 53 -99 -8 c-54 -4 -224 -8
-376 -8 l-278 0 65 -33 c36 -18 65 -34 65 -37 0 -3 -53 -5 -117 -5 l-118 1 44
39 c24 22 40 40 35 40 -39 0 -305 36 -414 56 -845 154 -1609 561 -2213 1178
-119 121 -127 128 -121 96z m898 -787 c-40 -65 -67 -103 -71 -99 -10 10 62
124 80 125 4 1 0 -11 -9 -26z"/>
<path d="M2226 3427 c-25 -46 -46 -91 -46 -99 0 -12 -9 -15 -43 -11 -32 4 -55
0 -84 -16 -79 -40 -103 -103 -67 -174 20 -38 82 -117 93 -117 10 0 355 259
359 269 2 5 -8 21 -21 36 l-24 28 -74 -56 c-59 -45 -75 -53 -82 -41 -7 13 28
89 79 169 11 17 9 25 -16 58 l-28 38 -46 -84z m-50 -203 l26 -25 -53 -40 c-29
-21 -56 -39 -61 -39 -16 0 -40 49 -33 70 7 22 60 60 83 60 7 0 24 -12 38 -26z"/>
<path d="M10462 3426 c-82 -74 -92 -161 -26 -223 40 -38 83 -48 139 -34 22 6
61 16 87 22 38 10 50 10 63 -1 25 -21 18 -56 -20 -89 -40 -35 -41 -38 -16 -70
18 -24 20 -24 45 -7 48 31 86 94 86 144 0 38 -5 49 -35 78 -49 46 -90 51 -180
25 -90 -26 -97 -26 -120 -1 -24 27 -14 60 32 100 35 31 36 33 20 58 -22 38
-31 37 -75 -2z"/>
<path d="M2447 3215 l-28 -25 48 -56 48 -57 -45 -39 c-44 -39 -45 -40 -61 -19
-9 11 -29 34 -43 52 l-26 31 -29 -25 -29 -24 39 -44 c21 -24 38 -49 39 -55 0
-6 -18 -25 -39 -42 l-40 -32 -48 55 -48 54 -29 -24 -29 -23 73 -86 c41 -48 77
-85 81 -84 16 7 339 284 339 291 0 6 -140 178 -144 177 -1 0 -14 -12 -29 -25z"/>
<path d="M10303 3199 c-16 -10 -53 -47 -82 -81 l-52 -61 26 -26 26 -26 52 57
52 57 44 -39 44 -38 -41 -48 c-23 -26 -42 -50 -42 -53 0 -3 13 -15 27 -25 l27
-20 43 49 44 48 36 -30 c20 -16 38 -34 40 -39 2 -6 -15 -31 -37 -56 -22 -25
-40 -50 -40 -55 0 -5 11 -20 24 -32 l24 -22 75 89 75 89 -135 114 c-75 63
-150 126 -167 141 l-32 26 -31 -19z"/>
<path d="M3390 3020 c-29 -22 -34 -14 75 -107 185 -157 468 -353 685 -476
1170 -660 2562 -776 3815 -317 223 82 539 226 557 254 4 6 8 8 8 3 0 -4 17 2
38 12 64 35 64 35 51 64 -15 34 -21 34 -42 0 -38 -63 -43 -66 -69 -49 -22 14
-30 11 -148 -45 -492 -237 -963 -371 -1515 -431 -160 -17 -720 -17 -880 0
-316 35 -608 93 -865 173 -65 20 -116 29 -165 29 -63 1 -68 2 -51 15 11 8 18
16 15 18 -2 2 -38 17 -79 32 -463 172 -942 451 -1310 764 -36 30 -72 61 -80
67 -12 10 -20 9 -40 -6z"/>
<path d="M10050 2929 l-83 -90 27 -27 27 -27 54 60 c62 69 38 79 209 -82 65
-62 122 -113 126 -113 13 0 52 49 46 58 -3 5 -77 77 -164 160 l-159 152 -83
-91z"/>
<path d="M2654 2977 l-18 -37 35 -36 34 -36 -138 -131 -139 -132 22 -27 c12
-16 26 -28 31 -28 10 0 329 299 329 309 0 3 -31 40 -69 81 l-69 75 -18 -38z"/>
<path d="M2604 2989 c-3 -6 -1 -16 5 -22 8 -8 11 -5 11 11 0 24 -5 28 -16 11z"/>
<path d="M9325 2991 c-9 -15 -180 -151 -286 -227 -91 -67 -95 -71 -86 -97 5
-15 13 -27 19 -27 12 0 294 211 356 266 40 36 43 41 33 67 -11 27 -25 35 -36
18z"/>
<path d="M2809 2804 l-24 -25 60 -53 59 -53 -71 -79 c-39 -44 -97 -104 -127
-134 -31 -30 -56 -59 -56 -65 0 -7 12 -22 26 -36 l26 -24 153 160 c85 88 154
165 155 171 0 10 -161 164 -172 164 -3 0 -15 -12 -29 -26z"/>
<path d="M9966 2735 c4 -33 12 -69 20 -80 7 -11 58 -67 113 -125 l100 -105 30
30 29 30 -149 155 -149 155 6 -60z"/>
<path d="M3029 2604 l-24 -26 57 -51 57 -52 -39 -44 -38 -44 -48 41 c-26 23
-50 42 -54 42 -4 0 -16 -12 -25 -27 l-18 -27 48 -42 48 -43 -32 -40 c-18 -23
-36 -41 -40 -41 -3 0 -30 21 -59 46 -29 26 -54 45 -55 43 -1 -2 -12 -16 -25
-30 l-23 -26 85 -72 c47 -40 90 -70 95 -67 14 9 280 324 283 335 2 8 -156 151
-166 151 -1 0 -13 -12 -27 -26z"/>
<path d="M9805 2480 c-22 -23 -26 -32 -17 -43 10 -11 2 -22 -38 -53 -27 -21
-49 -42 -50 -45 0 -3 11 -16 25 -29 l24 -23 37 29 c66 53 62 52 100 9 l35 -40
-55 -50 -55 -50 25 -28 24 -28 85 72 c47 40 85 75 85 77 0 5 -190 232 -194
232 -1 0 -15 -13 -31 -30z"/>
<path d="M9485 2418 l-26 -23 56 -75 c46 -61 53 -75 40 -83 -11 -6 -40 6 -98
39 -45 26 -84 48 -87 49 -3 2 -22 -9 -43 -25 l-38 -28 87 -46 c47 -25 92 -46
99 -46 9 0 11 -12 8 -43 -4 -32 0 -55 16 -84 39 -77 105 -102 174 -67 40 20
117 82 117 94 0 18 -232 320 -246 320 -8 0 -14 9 -14 20 0 26 -13 25 -45 -2z
m192 -333 c-2 -5 -16 -17 -31 -25 -26 -14 -28 -14 -57 18 -36 40 -39 84 -7
106 20 15 23 13 60 -36 21 -29 37 -57 35 -63z"/>
<path d="M3215 2379 c-46 -41 -62 -94 -47 -154 7 -25 17 -65 24 -90 20 -79
-28 -101 -89 -40 -19 19 -38 35 -41 35 -4 0 -18 -9 -31 -19 -24 -18 -24 -20
-7 -45 31 -48 94 -86 142 -86 36 0 49 6 78 35 48 48 54 90 27 182 -26 89 -26
95 -1 118 27 24 60 14 100 -32 31 -35 33 -36 58 -20 38 22 37 31 -3 75 -70 78
-150 94 -210 41z"/>
<path d="M3635 2104 c-20 -31 -66 -103 -102 -160 l-65 -104 -43 30 -44 30 -21
-31 c-12 -16 -20 -33 -17 -36 10 -9 241 -153 247 -153 3 0 14 13 23 30 l18 29
-43 28 c-24 15 -44 28 -46 29 -2 1 40 70 93 154 53 83 98 157 101 164 4 10
-43 46 -60 46 -3 0 -22 -25 -41 -56z"/>
<path d="M3874 2013 c-30 -6 -79 -61 -93 -104 -13 -40 -12 -40 32 -151 25 -64
28 -80 17 -93 -19 -23 -56 -18 -92 14 l-33 29 -30 -25 -30 -24 42 -38 c87 -78
175 -71 221 19 27 53 25 72 -18 170 -35 80 -36 84 -11 109 26 26 65 17 106
-25 l33 -32 28 29 c27 28 27 29 8 50 -42 47 -128 81 -180 72z"/>
<path d="M8954 1931 c-32 -20 -64 -74 -64 -110 0 -62 54 -125 116 -137 46 -9
115 26 139 70 29 53 16 122 -29 163 -30 28 -43 33 -83 33 -29 0 -60 -7 -79
-19z"/>
<path d="M4095 1879 c-9 -17 -15 -32 -13 -34 2 -1 31 -17 66 -34 34 -17 62
-33 62 -36 0 -13 -45 -95 -52 -95 -5 0 -31 11 -58 25 -27 14 -52 25 -54 25 -6
0 -36 -55 -36 -64 0 -3 27 -17 60 -32 34 -15 59 -30 57 -33 -1 -3 -11 -25 -21
-48 -10 -24 -22 -43 -26 -43 -4 0 -33 11 -64 25 -31 14 -60 25 -65 25 -9 0
-36 -58 -30 -64 2 -2 48 -24 102 -49 l99 -46 99 207 c55 113 96 208 90 210 -6
2 -52 23 -101 48 -50 24 -93 44 -95 44 -3 0 -12 -14 -20 -31z"/>
<path d="M8396 1784 c-60 -22 -105 -53 -121 -84 -39 -76 10 -190 82 -190 21 0
21 -1 8 -34 -26 -61 14 -148 74 -161 29 -6 125 23 176 55 l33 20 -87 205 c-94
224 -88 217 -165 189z m50 -126 c10 -29 20 -55 22 -58 4 -9 -45 -30 -67 -30
-50 0 -72 88 -31 122 38 30 54 23 76 -34z m73 -177 c27 -63 26 -65 -4 -79 -35
-16 -42 -15 -65 8 -29 29 -26 74 6 99 15 12 30 21 34 21 4 0 17 -22 29 -49z"/>
<path d="M4380 1743 c-65 -34 -97 -137 -56 -182 18 -20 18 -20 -8 -27 -61 -15
-101 -106 -72 -162 16 -32 108 -83 172 -96 l30 -7 83 205 c46 113 80 210 76
216 -11 17 -108 59 -153 65 -25 4 -48 0 -72 -12z m115 -77 c18 -13 17 -15 -5
-70 -13 -31 -29 -56 -35 -56 -7 0 -24 9 -39 21 -67 53 10 156 79 105z m-67
-184 c10 -7 8 -20 -10 -63 -27 -67 -23 -62 -47 -54 -52 16 -67 69 -31 105 20
20 65 26 88 12z"/>
<path d="M8055 1645 c-85 -31 -90 -35 -88 -61 3 -44 15 -47 87 -20 47 16 69
20 72 13 22 -62 34 -100 32 -102 -2 -1 -27 -10 -56 -20 -59 -19 -67 -29 -53
-68 l10 -26 57 19 c31 11 61 20 65 20 8 0 44 -99 38 -104 -2 -2 -31 -12 -64
-23 -55 -19 -60 -22 -58 -48 1 -16 6 -32 11 -37 7 -7 196 53 210 67 3 2 -28
99 -68 215 -55 160 -77 210 -89 209 -9 0 -56 -16 -106 -34z"/>
<path d="M7817 1576 c-95 -26 -135 -96 -102 -181 19 -52 47 -73 130 -104 73
-27 85 -37 85 -67 0 -29 -27 -44 -79 -44 l-41 0 0 -40 0 -40 43 0 c23 0 60 9
82 19 71 33 93 74 75 142 -15 53 -56 92 -114 109 -95 26 -131 69 -96 112 14
18 28 23 68 23 49 0 51 1 57 33 3 18 3 37 0 42 -8 13 -49 12 -108 -4z"/>
<path d="M7488 1483 c-10 -2 -18 -8 -18 -12 0 -5 18 -85 40 -180 22 -94 40
-175 40 -180 0 -5 -21 -13 -47 -18 -46 -8 -48 -10 -46 -42 0 -18 3 -35 6 -38
5 -5 278 54 286 62 2 2 1 20 -3 38 -6 34 -7 35 -44 26 -76 -18 -64 -42 -137
279 -17 76 -22 80 -77 65z"/>
<path d="M4953 1420 c-66 -40 -87 -105 -54 -172 24 -51 65 -78 116 -78 77 0
135 57 135 132 0 106 -109 172 -197 118z"/>
<path d="M5551 1349 c16 -50 33 -97 39 -104 8 -9 4 -17 -15 -29 -42 -27 -65
-75 -65 -133 0 -90 59 -133 184 -133 35 0 56 4 56 11 0 7 14 106 31 221 17
115 29 211 27 213 -2 1 -19 5 -39 9 l-37 7 -11 -64 c-6 -35 -11 -75 -11 -90 0
-14 -4 -28 -8 -31 -19 -12 -36 18 -58 100 -13 48 -27 91 -31 94 -4 4 -27 10
-49 14 l-42 6 29 -91z m139 -203 c0 -13 -3 -44 -6 -70 -6 -42 -9 -46 -35 -46
-37 0 -63 37 -53 76 10 42 33 64 66 64 23 0 28 -4 28 -24z"/>
<path d="M7090 1419 c-77 -23 -114 -92 -91 -169 12 -42 48 -76 131 -123 64
-38 76 -66 35 -93 -18 -12 -36 -15 -64 -10 -34 5 -39 3 -45 -17 -14 -54 -11
-57 59 -57 106 0 155 37 155 119 0 64 -28 101 -110 146 -80 44 -98 65 -81 101
12 28 48 39 101 30 38 -6 39 -6 46 29 3 20 4 39 0 42 -11 11 -101 12 -136 2z"/>
<path d="M5860 1350 l0 -40 70 0 70 0 0 -61 0 -61 -70 4 -70 4 0 -37 0 -37 66
-7 66 -7 -6 -30 c-3 -17 -6 -42 -6 -55 l0 -25 -75 7 -75 7 0 -40 0 -39 83 -6
c45 -4 96 -7 112 -7 l31 0 18 221 c9 121 15 223 12 226 -6 6 -141 22 -193 22
-32 1 -33 0 -33 -39z"/>
<path d="M6840 1383 c-149 -14 -140 -11 -140 -50 l0 -36 75 5 c83 6 85 4 85
-67 l0 -43 -65 -7 c-68 -8 -72 -12 -59 -60 4 -18 12 -20 69 -17 58 3 65 2 65
-15 0 -10 3 -34 6 -54 l6 -36 -77 -8 -77 -7 6 -30 c3 -17 6 -33 6 -37 0 -3 52
-2 115 3 l114 9 -5 41 c-5 43 -34 390 -34 407 0 9 -18 9 -90 2z"/>
<path d="M6128 1335 c-2 -20 -2 -38 1 -40 2 -3 38 -5 80 -5 l76 0 -3 -132 c-1
-73 -3 -159 -5 -190 l-2 -56 35 -5 c19 -2 38 -2 41 2 4 3 10 105 14 227 l7
221 -47 7 c-26 3 -80 6 -120 6 l-73 0 -4 -35z"/>
<path d="M6455 1363 l-51 -4 4 -34 4 -35 79 0 79 0 0 -98 c0 -55 3 -140 6
-190 l7 -92 40 0 40 0 -6 158 c-4 86 -7 190 -7 230 l0 72 -72 -2 c-40 -1 -96
-3 -123 -5z"/>
<path d="M7060 464 c-229 -28 -455 -37 -786 -32 -307 5 -393 1 -332 -16 12 -3
62 -9 111 -13 59 -4 87 -10 87 -19 0 -43 667 -22 1088 35 142 19 187 31 121
31 -19 0 -59 7 -89 15 -62 17 -58 17 -200 -1z"/>
</g>
</svg>
